<mxfile host="Electron" modified="2024-01-17T12:21:36.690Z" agent="Mozilla/5.0 (Windows NT 10.0; Win64; x64) AppleWebKit/537.36 (KHTML, like Gecko) draw.io/21.6.5 Chrome/114.0.5735.243 Electron/25.3.1 Safari/537.36" etag="2o_F2KqRdMfBo5PlGLLv" version="21.6.5" type="device">
  <diagram name="Seite-1" id="kYTPzAVggp-2HPZfrTok">
    <mxGraphModel dx="2606" dy="1360" grid="1" gridSize="10" guides="1" tooltips="1" connect="1" arrows="1" fold="1" page="0" pageScale="1" pageWidth="827" pageHeight="1169" math="0" shadow="0">
      <root>
        <mxCell id="0" />
        <mxCell id="1" parent="0" />
        <mxCell id="_9xxUOgOAwu83ZEWhvxB-19" value="" style="rounded=0;whiteSpace=wrap;html=1;fontFamily=Helvetica;fontSize=11;fontColor=#333333;fillColor=#f5f5f5;strokeColor=#B3B3B3;strokeWidth=2;" vertex="1" parent="1">
          <mxGeometry x="850" y="520" width="180" height="280" as="geometry" />
        </mxCell>
        <mxCell id="_9xxUOgOAwu83ZEWhvxB-4" style="edgeStyle=orthogonalEdgeStyle;rounded=0;orthogonalLoop=1;jettySize=auto;html=1;exitX=0.5;exitY=1;exitDx=0;exitDy=0;entryX=0.5;entryY=0;entryDx=0;entryDy=0;endArrow=none;endFill=0;strokeWidth=2;" edge="1" parent="1" source="_9xxUOgOAwu83ZEWhvxB-1" target="_9xxUOgOAwu83ZEWhvxB-2">
          <mxGeometry relative="1" as="geometry" />
        </mxCell>
        <mxCell id="_9xxUOgOAwu83ZEWhvxB-1" value="1" style="ellipse;whiteSpace=wrap;html=1;aspect=fixed;fontSize=32;strokeWidth=2;fillColor=#dae8fc;strokeColor=#6c8ebf;" vertex="1" parent="1">
          <mxGeometry x="236" y="280" width="80" height="80" as="geometry" />
        </mxCell>
        <mxCell id="_9xxUOgOAwu83ZEWhvxB-5" style="edgeStyle=orthogonalEdgeStyle;rounded=0;orthogonalLoop=1;jettySize=auto;html=1;exitX=0.5;exitY=1;exitDx=0;exitDy=0;entryX=0.5;entryY=0;entryDx=0;entryDy=0;endArrow=none;endFill=0;strokeWidth=2;" edge="1" parent="1" source="_9xxUOgOAwu83ZEWhvxB-2" target="_9xxUOgOAwu83ZEWhvxB-3">
          <mxGeometry relative="1" as="geometry" />
        </mxCell>
        <mxCell id="_9xxUOgOAwu83ZEWhvxB-2" value="2" style="ellipse;whiteSpace=wrap;html=1;aspect=fixed;fontSize=32;strokeWidth=2;fillColor=#d5e8d4;strokeColor=#82b366;" vertex="1" parent="1">
          <mxGeometry x="236" y="440" width="80" height="80" as="geometry" />
        </mxCell>
        <mxCell id="_9xxUOgOAwu83ZEWhvxB-3" value="3" style="ellipse;whiteSpace=wrap;html=1;aspect=fixed;fontSize=32;strokeWidth=2;fillColor=#dae8fc;strokeColor=#6c8ebf;" vertex="1" parent="1">
          <mxGeometry x="236" y="600" width="80" height="80" as="geometry" />
        </mxCell>
        <mxCell id="_9xxUOgOAwu83ZEWhvxB-6" value="&lt;font style=&quot;font-size: 28px;&quot;&gt;Transformer&lt;/font&gt;" style="text;html=1;strokeColor=none;fillColor=none;align=center;verticalAlign=middle;whiteSpace=wrap;rounded=0;fontSize=11;fontFamily=Helvetica;fontColor=default;" vertex="1" parent="1">
          <mxGeometry x="100" y="465" width="60" height="30" as="geometry" />
        </mxCell>
        <mxCell id="_9xxUOgOAwu83ZEWhvxB-7" value="&lt;font style=&quot;font-size: 28px;&quot;&gt;LV Bus&lt;/font&gt;" style="text;html=1;strokeColor=none;fillColor=none;align=center;verticalAlign=middle;whiteSpace=wrap;rounded=0;fontSize=11;fontFamily=Helvetica;fontColor=default;" vertex="1" parent="1">
          <mxGeometry x="60" y="625" width="140" height="30" as="geometry" />
        </mxCell>
        <mxCell id="_9xxUOgOAwu83ZEWhvxB-8" value="&lt;font style=&quot;font-size: 28px;&quot;&gt;HV Bus&lt;/font&gt;" style="text;html=1;strokeColor=none;fillColor=none;align=center;verticalAlign=middle;whiteSpace=wrap;rounded=0;fontSize=11;fontFamily=Helvetica;fontColor=default;" vertex="1" parent="1">
          <mxGeometry x="70" y="305" width="120" height="30" as="geometry" />
        </mxCell>
        <mxCell id="_9xxUOgOAwu83ZEWhvxB-10" value="&lt;div style=&quot;text-align: left;&quot;&gt;&lt;span style=&quot;font-size: 20px; background-color: initial;&quot;&gt;&quot;1&quot;: [&quot;&quot;]&lt;/span&gt;&lt;/div&gt;&lt;font style=&quot;font-size: 20px;&quot;&gt;&lt;div style=&quot;text-align: left;&quot;&gt;&lt;span style=&quot;background-color: initial;&quot;&gt;&quot;2&quot;: [&quot;HV&quot;]&lt;/span&gt;&lt;/div&gt;&lt;/font&gt;" style="rounded=0;whiteSpace=wrap;html=1;fontFamily=Courier New;fontSize=11;fillColor=#fff2cc;strokeColor=#d6b656;" vertex="1" parent="1">
          <mxGeometry x="316" y="370" width="160" height="60" as="geometry" />
        </mxCell>
        <mxCell id="_9xxUOgOAwu83ZEWhvxB-11" value="&lt;div style=&quot;text-align: left;&quot;&gt;&lt;span style=&quot;font-size: 20px; background-color: initial;&quot;&gt;&quot;2&quot;: [&quot;LV&quot;]&lt;/span&gt;&lt;/div&gt;&lt;font style=&quot;font-size: 20px;&quot;&gt;&lt;div style=&quot;text-align: left;&quot;&gt;&lt;span style=&quot;background-color: initial;&quot;&gt;&quot;3&quot;: [&quot;&quot;]&lt;/span&gt;&lt;/div&gt;&lt;/font&gt;" style="rounded=0;whiteSpace=wrap;html=1;fontFamily=Courier New;fontSize=11;fillColor=#fff2cc;strokeColor=#d6b656;" vertex="1" parent="1">
          <mxGeometry x="316" y="530" width="160" height="60" as="geometry" />
        </mxCell>
        <mxCell id="_9xxUOgOAwu83ZEWhvxB-12" style="edgeStyle=orthogonalEdgeStyle;rounded=0;orthogonalLoop=1;jettySize=auto;html=1;exitX=0.5;exitY=1;exitDx=0;exitDy=0;entryX=0.5;entryY=0;entryDx=0;entryDy=0;endArrow=none;endFill=0;strokeWidth=2;" edge="1" parent="1" source="_9xxUOgOAwu83ZEWhvxB-13" target="_9xxUOgOAwu83ZEWhvxB-15">
          <mxGeometry relative="1" as="geometry" />
        </mxCell>
        <mxCell id="_9xxUOgOAwu83ZEWhvxB-13" value="1" style="ellipse;whiteSpace=wrap;html=1;aspect=fixed;fontSize=32;strokeWidth=2;fillColor=#dae8fc;strokeColor=#6c8ebf;" vertex="1" parent="1">
          <mxGeometry x="900" y="200" width="80" height="80" as="geometry" />
        </mxCell>
        <mxCell id="_9xxUOgOAwu83ZEWhvxB-21" style="edgeStyle=orthogonalEdgeStyle;shape=connector;rounded=0;orthogonalLoop=1;jettySize=auto;html=1;exitX=0.5;exitY=1;exitDx=0;exitDy=0;entryX=0.5;entryY=0;entryDx=0;entryDy=0;labelBackgroundColor=default;strokeColor=default;strokeWidth=2;fontFamily=Helvetica;fontSize=11;fontColor=default;endArrow=none;endFill=0;" edge="1" parent="1" source="_9xxUOgOAwu83ZEWhvxB-15" target="_9xxUOgOAwu83ZEWhvxB-19">
          <mxGeometry relative="1" as="geometry" />
        </mxCell>
        <mxCell id="_9xxUOgOAwu83ZEWhvxB-15" value="2" style="ellipse;whiteSpace=wrap;html=1;aspect=fixed;fontSize=32;strokeWidth=2;fillColor=#d5e8d4;strokeColor=#82b366;" vertex="1" parent="1">
          <mxGeometry x="900" y="360" width="80" height="80" as="geometry" />
        </mxCell>
        <mxCell id="_9xxUOgOAwu83ZEWhvxB-24" style="edgeStyle=orthogonalEdgeStyle;shape=connector;rounded=0;orthogonalLoop=1;jettySize=auto;html=1;exitX=0.5;exitY=0;exitDx=0;exitDy=0;entryX=0.5;entryY=1;entryDx=0;entryDy=0;labelBackgroundColor=default;strokeColor=default;strokeWidth=2;fontFamily=Helvetica;fontSize=11;fontColor=default;endArrow=none;endFill=0;" edge="1" parent="1" source="_9xxUOgOAwu83ZEWhvxB-16" target="_9xxUOgOAwu83ZEWhvxB-22">
          <mxGeometry relative="1" as="geometry" />
        </mxCell>
        <mxCell id="_9xxUOgOAwu83ZEWhvxB-16" value="3" style="ellipse;whiteSpace=wrap;html=1;aspect=fixed;fontSize=32;strokeWidth=2;fillColor=#dae8fc;strokeColor=#6c8ebf;" vertex="1" parent="1">
          <mxGeometry x="900" y="680" width="80" height="80" as="geometry" />
        </mxCell>
        <mxCell id="_9xxUOgOAwu83ZEWhvxB-18" value="&lt;font style=&quot;font-size: 20px;&quot;&gt;&quot;2&quot;: [&quot;LV&quot;]&lt;br&gt;&quot;4&quot;: [&quot;&quot;]&lt;br&gt;&lt;/font&gt;" style="rounded=0;whiteSpace=wrap;html=1;fontFamily=Courier New;fontSize=11;fillColor=#fff2cc;strokeColor=#d6b656;align=left;" vertex="1" parent="1">
          <mxGeometry x="980" y="450" width="160" height="60" as="geometry" />
        </mxCell>
        <mxCell id="_9xxUOgOAwu83ZEWhvxB-20" value="&lt;font style=&quot;font-size: 28px;&quot;&gt;Subsystem&lt;/font&gt;" style="text;html=1;strokeColor=none;fillColor=none;align=center;verticalAlign=middle;whiteSpace=wrap;rounded=0;fontSize=11;fontFamily=Helvetica;fontColor=default;" vertex="1" parent="1">
          <mxGeometry x="700" y="765" width="140" height="30" as="geometry" />
        </mxCell>
        <mxCell id="_9xxUOgOAwu83ZEWhvxB-22" value="" style="shape=offPageConnector;whiteSpace=wrap;html=1;fontFamily=Helvetica;fontSize=11;fillColor=#e1d5e7;strokeColor=#9673a6;strokeWidth=2;size=0.3;" vertex="1" parent="1">
          <mxGeometry x="900" y="526" width="80" height="100" as="geometry" />
        </mxCell>
        <mxCell id="_9xxUOgOAwu83ZEWhvxB-23" value="4" style="text;html=1;strokeColor=none;fillColor=none;align=center;verticalAlign=middle;whiteSpace=wrap;rounded=0;fontSize=32;fontFamily=Helvetica;fontColor=default;" vertex="1" parent="1">
          <mxGeometry x="850" y="760" width="40" height="40" as="geometry" />
        </mxCell>
        <mxCell id="_9xxUOgOAwu83ZEWhvxB-25" value="&lt;font style=&quot;font-size: 20px;&quot;&gt;&quot;3&quot;: [&quot;&quot;]&lt;br&gt;&quot;5&quot;: [&quot;LV&quot;]&lt;/font&gt;" style="rounded=0;whiteSpace=wrap;html=1;fontFamily=Courier New;fontSize=11;fillColor=#fff2cc;strokeColor=#d6b656;align=left;" vertex="1" parent="1">
          <mxGeometry x="980" y="620" width="160" height="60" as="geometry" />
        </mxCell>
        <mxCell id="_9xxUOgOAwu83ZEWhvxB-27" value="5" style="text;html=1;strokeColor=none;fillColor=none;align=center;verticalAlign=middle;whiteSpace=wrap;rounded=0;fontSize=32;fontFamily=Helvetica;fontColor=default;" vertex="1" parent="1">
          <mxGeometry x="920" y="561" width="40" height="40" as="geometry" />
        </mxCell>
        <mxCell id="_9xxUOgOAwu83ZEWhvxB-28" value="&lt;font style=&quot;font-size: 20px;&quot;&gt;cc: 2&lt;/font&gt;" style="text;html=1;strokeColor=none;fillColor=none;align=center;verticalAlign=middle;whiteSpace=wrap;rounded=0;fontSize=32;fontFamily=Helvetica;fontColor=default;" vertex="1" parent="1">
          <mxGeometry x="900" y="520" width="80" height="30" as="geometry" />
        </mxCell>
        <mxCell id="_9xxUOgOAwu83ZEWhvxB-29" value="" style="endArrow=none;html=1;rounded=0;labelBackgroundColor=default;strokeColor=#9673a6;strokeWidth=2;fontFamily=Helvetica;fontSize=11;fontColor=default;shape=connector;entryX=1;entryY=0.25;entryDx=0;entryDy=0;exitX=0;exitY=0.25;exitDx=0;exitDy=0;fillColor=#e1d5e7;" edge="1" parent="1" source="_9xxUOgOAwu83ZEWhvxB-22" target="_9xxUOgOAwu83ZEWhvxB-22">
          <mxGeometry width="50" height="50" relative="1" as="geometry">
            <mxPoint x="960" y="600" as="sourcePoint" />
            <mxPoint x="1010" y="550" as="targetPoint" />
          </mxGeometry>
        </mxCell>
        <mxCell id="_9xxUOgOAwu83ZEWhvxB-30" value="&lt;font style=&quot;font-size: 28px;&quot;&gt;Port&lt;/font&gt;" style="text;html=1;strokeColor=none;fillColor=none;align=center;verticalAlign=middle;whiteSpace=wrap;rounded=0;fontSize=11;fontFamily=Helvetica;fontColor=default;" vertex="1" parent="1">
          <mxGeometry x="750" y="561" width="80" height="30" as="geometry" />
        </mxCell>
        <mxCell id="_9xxUOgOAwu83ZEWhvxB-31" value="" style="rounded=0;whiteSpace=wrap;html=1;fontFamily=Helvetica;fontSize=11;fontColor=#333333;fillColor=#f5f5f5;strokeColor=#B3B3B3;strokeWidth=2;" vertex="1" parent="1">
          <mxGeometry x="10" y="1060" width="440" height="280" as="geometry" />
        </mxCell>
        <mxCell id="_9xxUOgOAwu83ZEWhvxB-48" style="shape=connector;rounded=0;orthogonalLoop=1;jettySize=auto;html=1;exitX=1;exitY=0;exitDx=0;exitDy=0;entryX=0.16;entryY=0.82;entryDx=0;entryDy=0;entryPerimeter=0;labelBackgroundColor=default;strokeColor=default;strokeWidth=2;fontFamily=Helvetica;fontSize=11;fontColor=default;endArrow=none;endFill=0;" edge="1" parent="1" source="_9xxUOgOAwu83ZEWhvxB-33" target="_9xxUOgOAwu83ZEWhvxB-41">
          <mxGeometry relative="1" as="geometry" />
        </mxCell>
        <mxCell id="_9xxUOgOAwu83ZEWhvxB-33" value="1" style="ellipse;whiteSpace=wrap;html=1;aspect=fixed;fontSize=32;strokeWidth=2;fillColor=#dae8fc;strokeColor=#6c8ebf;" vertex="1" parent="1">
          <mxGeometry x="70" y="1220" width="80" height="80" as="geometry" />
        </mxCell>
        <mxCell id="_9xxUOgOAwu83ZEWhvxB-34" style="edgeStyle=orthogonalEdgeStyle;shape=connector;rounded=0;orthogonalLoop=1;jettySize=auto;html=1;exitX=0.5;exitY=1;exitDx=0;exitDy=0;entryX=0.5;entryY=0;entryDx=0;entryDy=0;labelBackgroundColor=default;strokeColor=default;strokeWidth=2;fontFamily=Helvetica;fontSize=11;fontColor=default;endArrow=none;endFill=0;" edge="1" parent="1" source="_9xxUOgOAwu83ZEWhvxB-35" target="_9xxUOgOAwu83ZEWhvxB-31">
          <mxGeometry relative="1" as="geometry" />
        </mxCell>
        <mxCell id="_9xxUOgOAwu83ZEWhvxB-35" value="2" style="ellipse;whiteSpace=wrap;html=1;aspect=fixed;fontSize=32;strokeWidth=2;fillColor=#d5e8d4;strokeColor=#82b366;" vertex="1" parent="1">
          <mxGeometry x="190" y="900" width="80" height="80" as="geometry" />
        </mxCell>
        <mxCell id="_9xxUOgOAwu83ZEWhvxB-49" style="shape=connector;rounded=0;orthogonalLoop=1;jettySize=auto;html=1;exitX=0;exitY=0;exitDx=0;exitDy=0;entryX=0.806;entryY=0.837;entryDx=0;entryDy=0;entryPerimeter=0;labelBackgroundColor=default;strokeColor=default;strokeWidth=2;fontFamily=Helvetica;fontSize=11;fontColor=default;endArrow=none;endFill=0;" edge="1" parent="1" source="_9xxUOgOAwu83ZEWhvxB-37" target="_9xxUOgOAwu83ZEWhvxB-41">
          <mxGeometry relative="1" as="geometry" />
        </mxCell>
        <mxCell id="_9xxUOgOAwu83ZEWhvxB-37" value="3" style="ellipse;whiteSpace=wrap;html=1;aspect=fixed;fontSize=32;strokeWidth=2;fillColor=#dae8fc;strokeColor=#6c8ebf;" vertex="1" parent="1">
          <mxGeometry x="310" y="1220" width="80" height="80" as="geometry" />
        </mxCell>
        <mxCell id="_9xxUOgOAwu83ZEWhvxB-39" value="&lt;font style=&quot;font-size: 20px;&quot;&gt;&quot;2&quot;: [&quot;HV&quot;,&quot;LV&quot;]&lt;br&gt;&quot;4&quot;: [&quot;&quot;,&quot;&quot;]&lt;br&gt;&lt;/font&gt;" style="rounded=0;whiteSpace=wrap;html=1;fontFamily=Courier New;fontSize=11;fillColor=#fff2cc;strokeColor=#d6b656;align=left;" vertex="1" parent="1">
          <mxGeometry x="260" y="990" width="210" height="60" as="geometry" />
        </mxCell>
        <mxCell id="_9xxUOgOAwu83ZEWhvxB-41" value="" style="shape=offPageConnector;whiteSpace=wrap;html=1;fontFamily=Helvetica;fontSize=11;fillColor=#e1d5e7;strokeColor=#9673a6;strokeWidth=2;size=0.3;" vertex="1" parent="1">
          <mxGeometry x="190" y="1066" width="80" height="100" as="geometry" />
        </mxCell>
        <mxCell id="_9xxUOgOAwu83ZEWhvxB-42" value="4" style="text;html=1;strokeColor=none;fillColor=none;align=center;verticalAlign=middle;whiteSpace=wrap;rounded=0;fontSize=32;fontFamily=Helvetica;fontColor=default;" vertex="1" parent="1">
          <mxGeometry x="410" y="1300" width="40" height="40" as="geometry" />
        </mxCell>
        <mxCell id="_9xxUOgOAwu83ZEWhvxB-44" value="5" style="text;html=1;strokeColor=none;fillColor=none;align=center;verticalAlign=middle;whiteSpace=wrap;rounded=0;fontSize=32;fontFamily=Helvetica;fontColor=default;" vertex="1" parent="1">
          <mxGeometry x="210" y="1101" width="40" height="40" as="geometry" />
        </mxCell>
        <mxCell id="_9xxUOgOAwu83ZEWhvxB-45" value="&lt;font style=&quot;font-size: 20px;&quot;&gt;cc: 2&lt;/font&gt;" style="text;html=1;strokeColor=none;fillColor=none;align=center;verticalAlign=middle;whiteSpace=wrap;rounded=0;fontSize=32;fontFamily=Helvetica;fontColor=default;" vertex="1" parent="1">
          <mxGeometry x="190" y="1060" width="80" height="30" as="geometry" />
        </mxCell>
        <mxCell id="_9xxUOgOAwu83ZEWhvxB-46" value="" style="endArrow=none;html=1;rounded=0;labelBackgroundColor=default;strokeColor=#9673a6;strokeWidth=2;fontFamily=Helvetica;fontSize=11;fontColor=default;shape=connector;entryX=1;entryY=0.25;entryDx=0;entryDy=0;exitX=0;exitY=0.25;exitDx=0;exitDy=0;fillColor=#e1d5e7;" edge="1" parent="1" source="_9xxUOgOAwu83ZEWhvxB-41" target="_9xxUOgOAwu83ZEWhvxB-41">
          <mxGeometry width="50" height="50" relative="1" as="geometry">
            <mxPoint x="250" y="1140" as="sourcePoint" />
            <mxPoint x="300" y="1090" as="targetPoint" />
          </mxGeometry>
        </mxCell>
        <mxCell id="_9xxUOgOAwu83ZEWhvxB-50" value="" style="rounded=0;whiteSpace=wrap;html=1;fontFamily=Helvetica;fontSize=11;fontColor=#333333;fillColor=#f5f5f5;strokeColor=#B3B3B3;strokeWidth=2;" vertex="1" parent="1">
          <mxGeometry x="730" y="1061" width="440" height="280" as="geometry" />
        </mxCell>
        <mxCell id="_9xxUOgOAwu83ZEWhvxB-71" style="edgeStyle=none;shape=connector;rounded=0;orthogonalLoop=1;jettySize=auto;html=1;exitX=0.5;exitY=1;exitDx=0;exitDy=0;entryX=0.5;entryY=0;entryDx=0;entryDy=0;labelBackgroundColor=default;strokeColor=default;strokeWidth=2;fontFamily=Helvetica;fontSize=11;fontColor=default;endArrow=none;endFill=0;" edge="1" parent="1" source="_9xxUOgOAwu83ZEWhvxB-52" target="_9xxUOgOAwu83ZEWhvxB-63">
          <mxGeometry relative="1" as="geometry" />
        </mxCell>
        <mxCell id="_9xxUOgOAwu83ZEWhvxB-52" value="1" style="ellipse;whiteSpace=wrap;html=1;aspect=fixed;fontSize=32;strokeWidth=2;fillColor=#dae8fc;strokeColor=#6c8ebf;" vertex="1" parent="1">
          <mxGeometry x="770" y="901" width="80" height="80" as="geometry" />
        </mxCell>
        <mxCell id="_9xxUOgOAwu83ZEWhvxB-73" style="edgeStyle=none;shape=connector;rounded=0;orthogonalLoop=1;jettySize=auto;html=1;exitX=0;exitY=0;exitDx=0;exitDy=0;entryX=0.746;entryY=0.856;entryDx=0;entryDy=0;labelBackgroundColor=default;strokeColor=default;strokeWidth=2;fontFamily=Helvetica;fontSize=11;fontColor=default;endArrow=none;endFill=0;entryPerimeter=0;" edge="1" parent="1" source="_9xxUOgOAwu83ZEWhvxB-54" target="_9xxUOgOAwu83ZEWhvxB-59">
          <mxGeometry relative="1" as="geometry" />
        </mxCell>
        <mxCell id="_9xxUOgOAwu83ZEWhvxB-74" style="edgeStyle=none;shape=connector;rounded=0;orthogonalLoop=1;jettySize=auto;html=1;exitX=1;exitY=0;exitDx=0;exitDy=0;labelBackgroundColor=default;strokeColor=default;strokeWidth=2;fontFamily=Helvetica;fontSize=11;fontColor=default;endArrow=none;endFill=0;" edge="1" parent="1" source="_9xxUOgOAwu83ZEWhvxB-54">
          <mxGeometry relative="1" as="geometry">
            <mxPoint x="1070" y="1151" as="targetPoint" />
          </mxGeometry>
        </mxCell>
        <mxCell id="_9xxUOgOAwu83ZEWhvxB-54" value="2" style="ellipse;whiteSpace=wrap;html=1;aspect=fixed;fontSize=32;strokeWidth=2;fillColor=#d5e8d4;strokeColor=#82b366;" vertex="1" parent="1">
          <mxGeometry x="910" y="1221" width="80" height="80" as="geometry" />
        </mxCell>
        <mxCell id="_9xxUOgOAwu83ZEWhvxB-72" style="edgeStyle=none;shape=connector;rounded=0;orthogonalLoop=1;jettySize=auto;html=1;exitX=0.5;exitY=1;exitDx=0;exitDy=0;entryX=0.5;entryY=0;entryDx=0;entryDy=0;labelBackgroundColor=default;strokeColor=default;strokeWidth=2;fontFamily=Helvetica;fontSize=11;fontColor=default;endArrow=none;endFill=0;" edge="1" parent="1" source="_9xxUOgOAwu83ZEWhvxB-56" target="_9xxUOgOAwu83ZEWhvxB-69">
          <mxGeometry relative="1" as="geometry" />
        </mxCell>
        <mxCell id="_9xxUOgOAwu83ZEWhvxB-56" value="3" style="ellipse;whiteSpace=wrap;html=1;aspect=fixed;fontSize=32;strokeWidth=2;fillColor=#dae8fc;strokeColor=#6c8ebf;" vertex="1" parent="1">
          <mxGeometry x="1050" y="901" width="80" height="80" as="geometry" />
        </mxCell>
        <mxCell id="_9xxUOgOAwu83ZEWhvxB-57" value="&lt;font style=&quot;font-size: 20px;&quot;&gt;&quot;1&quot;: [&quot;&quot;]&lt;br&gt;&quot;4&quot;: [&quot;HV&quot;]&lt;/font&gt;" style="rounded=0;whiteSpace=wrap;html=1;fontFamily=Courier New;fontSize=11;fillColor=#fff2cc;strokeColor=#d6b656;align=left;" vertex="1" parent="1">
          <mxGeometry x="640" y="991" width="160" height="60" as="geometry" />
        </mxCell>
        <mxCell id="_9xxUOgOAwu83ZEWhvxB-60" value="4" style="text;html=1;strokeColor=none;fillColor=none;align=center;verticalAlign=middle;whiteSpace=wrap;rounded=0;fontSize=32;fontFamily=Helvetica;fontColor=default;" vertex="1" parent="1">
          <mxGeometry x="1130" y="1301" width="40" height="40" as="geometry" />
        </mxCell>
        <mxCell id="_9xxUOgOAwu83ZEWhvxB-61" value="&lt;font style=&quot;font-size: 20px;&quot;&gt;&quot;3&quot;: [&quot;&quot;]&lt;br&gt;&quot;4&quot;: [&quot;LV&quot;]&lt;/font&gt;" style="rounded=0;whiteSpace=wrap;html=1;fontFamily=Courier New;fontSize=11;fillColor=#fff2cc;strokeColor=#d6b656;align=left;" vertex="1" parent="1">
          <mxGeometry x="1100" y="991" width="160" height="60" as="geometry" />
        </mxCell>
        <mxCell id="_9xxUOgOAwu83ZEWhvxB-65" value="" style="group" vertex="1" connectable="0" parent="1">
          <mxGeometry x="770" y="1061" width="80" height="106" as="geometry" />
        </mxCell>
        <mxCell id="_9xxUOgOAwu83ZEWhvxB-59" value="" style="shape=offPageConnector;whiteSpace=wrap;html=1;fontFamily=Helvetica;fontSize=11;fillColor=#e1d5e7;strokeColor=#9673a6;strokeWidth=2;size=0.3;" vertex="1" parent="_9xxUOgOAwu83ZEWhvxB-65">
          <mxGeometry y="6" width="80" height="100" as="geometry" />
        </mxCell>
        <mxCell id="_9xxUOgOAwu83ZEWhvxB-62" value="5" style="text;html=1;strokeColor=none;fillColor=none;align=center;verticalAlign=middle;whiteSpace=wrap;rounded=0;fontSize=32;fontFamily=Helvetica;fontColor=default;" vertex="1" parent="_9xxUOgOAwu83ZEWhvxB-65">
          <mxGeometry x="20" y="41" width="40" height="40" as="geometry" />
        </mxCell>
        <mxCell id="_9xxUOgOAwu83ZEWhvxB-63" value="&lt;font style=&quot;font-size: 20px;&quot;&gt;cc: 1&lt;/font&gt;" style="text;html=1;strokeColor=none;fillColor=none;align=center;verticalAlign=middle;whiteSpace=wrap;rounded=0;fontSize=32;fontFamily=Helvetica;fontColor=default;" vertex="1" parent="_9xxUOgOAwu83ZEWhvxB-65">
          <mxGeometry width="80" height="30" as="geometry" />
        </mxCell>
        <mxCell id="_9xxUOgOAwu83ZEWhvxB-64" value="" style="endArrow=none;html=1;rounded=0;labelBackgroundColor=default;strokeColor=#9673a6;strokeWidth=2;fontFamily=Helvetica;fontSize=11;fontColor=default;shape=connector;entryX=1;entryY=0.25;entryDx=0;entryDy=0;exitX=0;exitY=0.25;exitDx=0;exitDy=0;fillColor=#e1d5e7;" edge="1" parent="_9xxUOgOAwu83ZEWhvxB-65" source="_9xxUOgOAwu83ZEWhvxB-59" target="_9xxUOgOAwu83ZEWhvxB-59">
          <mxGeometry width="50" height="50" relative="1" as="geometry">
            <mxPoint x="60" y="80" as="sourcePoint" />
            <mxPoint x="110" y="30" as="targetPoint" />
          </mxGeometry>
        </mxCell>
        <mxCell id="_9xxUOgOAwu83ZEWhvxB-66" value="" style="group" vertex="1" connectable="0" parent="1">
          <mxGeometry x="1050" y="1061" width="80" height="106" as="geometry" />
        </mxCell>
        <mxCell id="_9xxUOgOAwu83ZEWhvxB-67" value="" style="shape=offPageConnector;whiteSpace=wrap;html=1;fontFamily=Helvetica;fontSize=11;fillColor=#e1d5e7;strokeColor=#9673a6;strokeWidth=2;size=0.3;" vertex="1" parent="_9xxUOgOAwu83ZEWhvxB-66">
          <mxGeometry y="6" width="80" height="100" as="geometry" />
        </mxCell>
        <mxCell id="_9xxUOgOAwu83ZEWhvxB-68" value="6" style="text;html=1;strokeColor=none;fillColor=none;align=center;verticalAlign=middle;whiteSpace=wrap;rounded=0;fontSize=32;fontFamily=Helvetica;fontColor=default;" vertex="1" parent="_9xxUOgOAwu83ZEWhvxB-66">
          <mxGeometry x="20" y="41" width="40" height="40" as="geometry" />
        </mxCell>
        <mxCell id="_9xxUOgOAwu83ZEWhvxB-69" value="&lt;font style=&quot;font-size: 20px;&quot;&gt;cc: 3&lt;/font&gt;" style="text;html=1;strokeColor=none;fillColor=none;align=center;verticalAlign=middle;whiteSpace=wrap;rounded=0;fontSize=32;fontFamily=Helvetica;fontColor=default;" vertex="1" parent="_9xxUOgOAwu83ZEWhvxB-66">
          <mxGeometry width="80" height="30" as="geometry" />
        </mxCell>
        <mxCell id="_9xxUOgOAwu83ZEWhvxB-70" value="" style="endArrow=none;html=1;rounded=0;labelBackgroundColor=default;strokeColor=#9673a6;strokeWidth=2;fontFamily=Helvetica;fontSize=11;fontColor=default;shape=connector;entryX=1;entryY=0.25;entryDx=0;entryDy=0;exitX=0;exitY=0.25;exitDx=0;exitDy=0;fillColor=#e1d5e7;" edge="1" parent="_9xxUOgOAwu83ZEWhvxB-66" source="_9xxUOgOAwu83ZEWhvxB-67" target="_9xxUOgOAwu83ZEWhvxB-67">
          <mxGeometry width="50" height="50" relative="1" as="geometry">
            <mxPoint x="60" y="80" as="sourcePoint" />
            <mxPoint x="110" y="30" as="targetPoint" />
          </mxGeometry>
        </mxCell>
        <mxCell id="_9xxUOgOAwu83ZEWhvxB-75" value="&lt;font style=&quot;font-size: 20px;&quot;&gt;&quot;2&quot;: [&quot;HV&quot;]&lt;br&gt;&quot;5&quot;: [&quot;&quot;]&lt;br&gt;&lt;/font&gt;" style="rounded=0;whiteSpace=wrap;html=1;fontFamily=Courier New;fontSize=11;fillColor=#fff2cc;strokeColor=#d6b656;align=left;" vertex="1" parent="1">
          <mxGeometry x="690" y="1201" width="160" height="60" as="geometry" />
        </mxCell>
        <mxCell id="_9xxUOgOAwu83ZEWhvxB-76" value="&lt;font style=&quot;font-size: 20px;&quot;&gt;&quot;2&quot;: [&quot;LV&quot;]&lt;br&gt;&quot;6&quot;: [&quot;&quot;]&lt;br&gt;&lt;/font&gt;" style="rounded=0;whiteSpace=wrap;html=1;fontFamily=Courier New;fontSize=11;fillColor=#fff2cc;strokeColor=#d6b656;align=left;" vertex="1" parent="1">
          <mxGeometry x="1050" y="1201" width="160" height="60" as="geometry" />
        </mxCell>
        <mxCell id="_9xxUOgOAwu83ZEWhvxB-77" value="&lt;div style=&quot;text-align: left;&quot;&gt;&lt;span style=&quot;font-size: 20px; background-color: initial;&quot;&gt;&quot;1&quot;: [&quot;&quot;]&lt;/span&gt;&lt;/div&gt;&lt;font style=&quot;font-size: 20px;&quot;&gt;&lt;div style=&quot;text-align: left;&quot;&gt;&lt;span style=&quot;background-color: initial;&quot;&gt;&quot;2&quot;: [&quot;HV&quot;]&lt;/span&gt;&lt;/div&gt;&lt;/font&gt;" style="rounded=0;whiteSpace=wrap;html=1;fontFamily=Courier New;fontSize=11;fillColor=#fff2cc;strokeColor=#d6b656;" vertex="1" parent="1">
          <mxGeometry x="980" y="290" width="160" height="60" as="geometry" />
        </mxCell>
        <mxCell id="_9xxUOgOAwu83ZEWhvxB-78" value="&lt;font style=&quot;font-size: 20px;&quot;&gt;&quot;3&quot;: [&quot;&quot;]&lt;br&gt;&quot;5&quot;: [&quot;LV&quot;]&lt;/font&gt;" style="rounded=0;whiteSpace=wrap;html=1;fontFamily=Courier New;fontSize=11;fillColor=#fff2cc;strokeColor=#d6b656;align=left;" vertex="1" parent="1">
          <mxGeometry x="310" y="1131" width="160" height="60" as="geometry" />
        </mxCell>
        <mxCell id="_9xxUOgOAwu83ZEWhvxB-79" value="&lt;font style=&quot;font-size: 20px;&quot;&gt;&quot;1&quot;: [&quot;&quot;]&lt;br&gt;&quot;5&quot;: [&quot;HV&quot;]&lt;/font&gt;" style="rounded=0;whiteSpace=wrap;html=1;fontFamily=Courier New;fontSize=11;fillColor=#fff2cc;strokeColor=#d6b656;align=left;" vertex="1" parent="1">
          <mxGeometry x="-10" y="1131" width="160" height="60" as="geometry" />
        </mxCell>
        <mxCell id="_9xxUOgOAwu83ZEWhvxB-80" value="" style="endArrow=none;dashed=1;html=1;rounded=0;labelBackgroundColor=default;strokeColor=default;strokeWidth=2;fontFamily=Helvetica;fontSize=11;fontColor=default;shape=connector;" edge="1" parent="1">
          <mxGeometry width="50" height="50" relative="1" as="geometry">
            <mxPoint x="580" y="1350" as="sourcePoint" />
            <mxPoint x="580" y="190" as="targetPoint" />
          </mxGeometry>
        </mxCell>
        <mxCell id="_9xxUOgOAwu83ZEWhvxB-81" value="" style="endArrow=none;dashed=1;html=1;rounded=0;labelBackgroundColor=default;strokeColor=default;strokeWidth=2;fontFamily=Helvetica;fontSize=11;fontColor=default;shape=connector;" edge="1" parent="1">
          <mxGeometry width="50" height="50" relative="1" as="geometry">
            <mxPoint x="-20" y="840" as="sourcePoint" />
            <mxPoint x="1270" y="840" as="targetPoint" />
          </mxGeometry>
        </mxCell>
        <mxCell id="_9xxUOgOAwu83ZEWhvxB-82" value="" style="endArrow=none;dashed=1;html=1;rounded=0;labelBackgroundColor=default;strokeColor=default;strokeWidth=2;fontFamily=Helvetica;fontSize=11;fontColor=default;shape=connector;exitX=0.222;exitY=0.2;exitDx=0;exitDy=0;exitPerimeter=0;" edge="1" parent="1" source="_9xxUOgOAwu83ZEWhvxB-19">
          <mxGeometry width="50" height="50" relative="1" as="geometry">
            <mxPoint x="730" y="660" as="sourcePoint" />
            <mxPoint x="830" y="576" as="targetPoint" />
          </mxGeometry>
        </mxCell>
        <mxCell id="_9xxUOgOAwu83ZEWhvxB-83" value="&lt;font style=&quot;font-size: 48px;&quot;&gt;A&lt;/font&gt;" style="text;strokeColor=none;fillColor=none;html=1;fontSize=11;fontStyle=1;verticalAlign=middle;align=center;fontFamily=Helvetica;fontColor=default;" vertex="1" parent="1">
          <mxGeometry x="-20" y="190" width="40" height="40" as="geometry" />
        </mxCell>
        <mxCell id="_9xxUOgOAwu83ZEWhvxB-84" value="&lt;font style=&quot;font-size: 48px;&quot;&gt;B&lt;/font&gt;" style="text;strokeColor=none;fillColor=none;html=1;fontSize=11;fontStyle=1;verticalAlign=middle;align=center;fontFamily=Helvetica;fontColor=default;" vertex="1" parent="1">
          <mxGeometry x="590" y="190" width="40" height="40" as="geometry" />
        </mxCell>
        <mxCell id="_9xxUOgOAwu83ZEWhvxB-85" value="&lt;font style=&quot;font-size: 48px;&quot;&gt;C&lt;/font&gt;" style="text;strokeColor=none;fillColor=none;html=1;fontSize=11;fontStyle=1;verticalAlign=middle;align=center;fontFamily=Helvetica;fontColor=default;" vertex="1" parent="1">
          <mxGeometry x="-20" y="850" width="40" height="40" as="geometry" />
        </mxCell>
        <mxCell id="_9xxUOgOAwu83ZEWhvxB-86" value="&lt;font style=&quot;font-size: 48px;&quot;&gt;D&lt;/font&gt;" style="text;strokeColor=none;fillColor=none;html=1;fontSize=11;fontStyle=1;verticalAlign=middle;align=center;fontFamily=Helvetica;fontColor=default;" vertex="1" parent="1">
          <mxGeometry x="590" y="850" width="40" height="40" as="geometry" />
        </mxCell>
      </root>
    </mxGraphModel>
  </diagram>
</mxfile>
